<?xml version="1.0" standalone="no"?>
<!DOCTYPE svg PUBLIC "-//W3C//DTD SVG 20010904//EN"
 "http://www.w3.org/TR/2001/REC-SVG-20010904/DTD/svg10.dtd">
<svg version="1.0" xmlns="http://www.w3.org/2000/svg"
 width="118.000000pt" height="126.000000pt" viewBox="0 0 118.000000 126.000000"
 preserveAspectRatio="xMidYMid meet">
<metadata>
Created by potrace 1.15, written by Peter Selinger 2001-2017
</metadata>
<g transform="translate(0.000000,126.000000) scale(0.100000,-0.100000)"
fill="#000000" stroke="none">
<path d="M0 630 l0 -630 590 0 590 0 0 630 0 630 -590 0 -590 0 0 -630z m647
399 c79 -30 162 -113 192 -192 40 -109 24 -225 -45 -319 -20 -26 -33 -52 -29
-57 3 -6 40 -50 81 -98 78 -91 101 -123 87 -123 -5 0 -15 8 -23 18 -8 9 -48
56 -89 105 -40 48 -77 87 -81 87 -5 0 -32 -12 -61 -27 -43 -23 -69 -29 -141
-31 -76 -4 -94 -1 -141 21 -76 35 -132 89 -167 162 -52 109 -39 247 32 340 94
122 243 166 385 114z"/>
<path d="M427 1016 c-154 -57 -245 -224 -203 -371 28 -95 80 -161 160 -204
157 -83 341 -22 428 141 19 36 23 58 23 138 0 82 -4 101 -25 140 -30 55 -88
111 -143 140 -54 29 -184 37 -240 16z"/>
</g>
</svg>
